# xmcd
#
# Track frame offsets:
# 150
# 2612
# 55104
# 125892
# 202201
#
# Disc length: 3309 seconds
#
#
# Revision: 0
# Processed by: cddbd v1.5.2PL0 Copyright (c) Steve Scherf et al.
# Submitted via: FreeRIP 2.95 
#
DISCID=440ceb05
DTITLE=Jemimah Media - God's Own Country
DYEAR=2006
DGENRE=Country
TTITLE0=Promo
TTITLE1=Program Part 1
TTITLE2=Program Part 2
TTITLE3=Program Part 3
TTITLE4=Program Part 4
EXTD=
EXTT0=
EXTT1=
EXTT2=
EXTT3=
EXTT4=
PLAYORDER=
